<?xml version="1.0" encoding="utf-8"?>
<!-- Generator: Adobe Illustrator 27.2.0, SVG Export Plug-In . SVG Version: 6.00 Build 0)  -->
<svg version="1.1" id="Laag_1" xmlns="http://www.w3.org/2000/svg" xmlns:xlink="http://www.w3.org/1999/xlink" x="0px" y="0px"
	 viewBox="0 0 42 24" style="enable-background:new 0 0 42 24;" xml:space="preserve">
<style type="text/css">
	.st0{fill:#FFF650;}
</style>
<g>
	<path class="st0" d="M27,11.9c-0.2,0.1-0.3,0.2-0.5,0.4C25,13.3,23,14,20.4,14h-0.2c-2.6,0-4.7-0.7-6.1-1.7
		c-0.2-0.2-0.4-0.3-0.5-0.4c0.2-0.1,0.3-0.2,0.5-0.4c1.4-1,3.4-1.7,6.1-1.7h0.2c2.6,0,4.7,0.7,6.1,1.7C26.6,11.7,26.8,11.8,27,11.9
		 M40.6,3.8c0,0-1.2-0.9-5-2.3C32.3,0.3,29.8,0,29.8,0l0,7.2c0,1-0.3,1.9-1,3c-2.8-1-5.5-1.7-8.4-1.7s-5.6,0.6-8.4,1.7
		c-0.8-1-1-2-1-3l0-7.2c0,0-2.5,0.3-5.9,1.5C1.2,2.9,0,3.8,0,3.8c0.2,3.3,3,6.2,7.5,8.1c-4.5,2-7.3,4.9-7.5,8.1c0,0,1.2,0.9,5,2.3
		c3.3,1.2,5.8,1.5,5.8,1.5l0-7.2c0-1,0.3-1.9,1-3c2.8,1,5.5,1.7,8.4,1.7c2.9,0,5.6-0.6,8.4-1.7c0.8,1,1,2,1,3l0,7.2
		c0,0,2.5-0.3,5.8-1.5c3.8-1.4,5-2.3,5-2.3c-0.2-3.3-3-6.2-7.5-8.1C37.5,9.9,40.4,7.1,40.6,3.8 M41.9,19.2c0,0.2-0.1,0.3-0.3,0.4
		c-0.2,0.1-0.3,0-0.5-0.1c-0.1-0.1-0.2-0.3-0.1-0.5c0.1-0.2,0.2-0.3,0.4-0.3c0.1,0,0.2,0,0.3,0.1C41.9,19,41.9,19.1,41.9,19.2
		 M42,19.2c0-0.2-0.1-0.4-0.3-0.5c-0.2-0.1-0.4,0-0.6,0.1C41,19,40.9,19.2,41,19.4c0.1,0.2,0.3,0.3,0.5,0.3
		C41.8,19.7,42,19.5,42,19.2"/>
	<path class="st0" d="M41.6,19.5L41.6,19.5l-0.1-0.2c0,0,0.1,0,0.1,0c0,0,0-0.1,0-0.1c0-0.1,0-0.1-0.2-0.1h-0.2v0.5h0.1v-0.2h0
		L41.6,19.5z M41.4,19.1L41.4,19.1c0.1,0,0.2,0,0.2,0.1c0,0.1,0,0.1-0.1,0.1h-0.1C41.4,19.2,41.4,19.1,41.4,19.1z"/>
</g>
</svg>
