<?xml version="1.0" encoding="utf-8"?>
<!-- Generator: Adobe Illustrator 27.2.0, SVG Export Plug-In . SVG Version: 6.00 Build 0)  -->
<svg version="1.1" id="Laag_1" xmlns="http://www.w3.org/2000/svg" xmlns:xlink="http://www.w3.org/1999/xlink" x="0px" y="0px"
	 viewBox="0 0 302 177.1" style="enable-background:new 0 0 302 177.1;" xml:space="preserve">
<style type="text/css">
	.st0{fill:#FFFFFF;}
</style>
<path class="st0" d="M221.1,66.5c24.4-10.7,40.3-26.8,41.1-44.6c0,0-6.4-5-27.2-12.6C216.9,2.5,202.9,1,202.9,1l0.1,39.8
	c0,5.9-2.4,12-6.9,17.4c-13.8-3.3-29-5.2-45-5.2h0c-16,0-31.2,1.9-45,5.2c-4.5-5.4-6.9-11.4-6.9-17.4L99.3,1c0,0-13.9,1.5-32.1,8.2
	C46.4,16.9,40,21.8,40,21.8c0.9,17.9,16.8,33.9,41.1,44.7C56.8,77.2,40.9,93.3,40,111.1c0,0,6.4,5,27.2,12.6
	c18.2,6.7,32.1,8.2,32.1,8.2l-0.1-39.8c0-5.9,2.4-12,6.9-17.4c13.8,3.3,29,5.2,45,5.2h0c16,0,31.2-1.9,45-5.2
	c4.5,5.4,6.9,11.5,6.9,17.4L203,132c0,0,13.9-1.5,32.1-8.2c20.8-7.6,27.2-12.6,27.2-12.6C261.4,93.3,245.5,77.2,221.1,66.5
	 M151.1,75.4L151.1,75.4l-0.5,0c-14.4,0-26.2-3.5-34.8-8.9c8.6-5.4,20.4-8.9,34.8-8.9l0.4,0h0l0.5,0c14.4,0,26.2,3.5,34.8,8.9
	c-8.6,5.4-20.4,8.9-34.8,8.9"/>
<path class="st0" d="M8.1,176c-7,0-7.1-5.3-7.1-7.4v-9.7c0-0.6,0-1.4,1.2-1.4h3.6c1.2,0,1.1,0.8,1.1,1.4v9.7c0,0.7,0.1,2.5,2.7,2.5
	h6.1c2.5,0,2.6-1.9,2.6-2.5v-9.7c0-0.5-0.1-1.4,1.1-1.4H23c1.3,0,1.2,0.8,1.2,1.4v9.7c0,2.1-0.1,7.4-7.1,7.4"/>
<path class="st0" d="M41.6,174.9c-2.5-3.3-6-7.5-9.6-11.9v11.8c0,0.5,0.1,1.3-1.1,1.3h-3.4c-1.2,0-1.1-0.8-1.1-1.3V159
	c0-0.5-0.1-1.4,1.1-1.4h6.6c1.9,0,4.5,3.7,6.2,6.2c1.3,1.9,3.8,4.7,5.5,6.8V159c0-0.5-0.1-1.4,1.1-1.4h3.7c1.2,0,1.1,0.8,1.1,1.4
	V176H45C43.5,176,42.9,176.1,41.6,174.9"/>
<path class="st0" d="M69.3,171.2c3,0,2.7-2.8,2.7-4.1c0-4.3-1.2-4.5-3.2-4.5h-9.3v8.6C59.6,171.2,69.3,171.2,69.3,171.2z M53.9,176
	v-18.4h16.3c1,0,7.7-0.1,7.7,6.9c0,7.2,0.8,11.5-7.5,11.5h-8.8l-1.9-3.9v3.9"/>
<path class="st0" d="M84.2,157.7h15c1.3,0,1.1,0.8,1.1,2.4c0,1.4,0.2,2.2-1.1,2.2H87.4c-0.3,0-1.4-0.2-1.4,1s-0.2,1.6,1,1.6h10.5
	c0,0,1.5,2.9,1.7,3.4c0.2,0.4,0.2,0.9-0.7,0.9H87.6l-1.7-3.3v4.8c0,1.1,1,0.9,1.3,0.9h12.3c1.2,0,1.1,0.9,1.1,2.2
	c0,1.5,0.1,2.3-1.1,2.3H83.9c-1.3,0-3.8-0.4-3.8-4.4v-10.2C80.1,160.5,80.6,157.7,84.2,157.7"/>
<path class="st0" d="M117.4,162.5h-7.3c-1.2,0-1.2,0.4-1.2,0.8v3.3h7.5c3.6,0,3.6-0.9,3.6-1.9C120.1,162.8,120,162.5,117.4,162.5
	 M104.4,157.6h16.4c2.2,0,5.4,0,5.4,5.9c0,3.9-0.8,4.1-2.6,5.3c3,0.5,2.6,4.3,2.6,6.3c0,1-0.4,1-0.7,1h-4.8c-1,0-0.8-1.6-0.8-2.4
	c0-2.3-1.3-2.2-1.8-2.2h-7.1c-0.7-1.2-2-3.8-2-3.8v7.6c0,0.7-0.7,0.8-0.9,0.8h-4.8c0.3,0-0.5,0-0.5-0.6v-16.2
	C102.8,158,103.6,157.6,104.4,157.6"/>
<path class="st0" d="M152.5,162.8l-3,5.5l0.3,0.3h5.6l0.3-0.3c-0.2-0.4-2.6-5.1-2.9-5.5L152.5,162.8 M154.4,157.7
	c1.2,0,2.4,0.5,3.6,3c0.9,1.8,6.8,12.5,8.1,14.8v0.6h-6.2l-1.8-3.2h-7.5c0,0-1.3-2.9-1.6-3.7c-0.5,0.8-3,5.5-3.8,6.9h-6.2v-0.4
	c1.3-2.4,9.9-18,9.9-18"/>
<path class="st0" d="M182.4,162.5h-7.3c-1.2,0-1.2,0.4-1.2,0.8v3.3h7.5c3.6,0,3.6-0.9,3.6-1.9C185.1,162.8,184.9,162.5,182.4,162.5
	 M169.3,157.6h16.4c2.2,0,5.4,0,5.4,5.9c0,3.9-0.8,4.1-2.6,5.3c3,0.5,2.6,4.3,2.6,6.3c0,1-0.4,1-0.7,1h-4.8c-1,0-0.8-1.6-0.8-2.4
	c0-2.3-1.3-2.2-1.8-2.2H176c-0.7-1.2-2-3.8-2-3.8v7.6c0,0.7-0.7,0.8-0.9,0.8h-4.8c0.3,0-0.5,0-0.5-0.6v-16.2
	C167.8,158,168.6,157.6,169.3,157.6"/>
<path class="st0" d="M205.5,176c-1.2-2.3-4.6-8.6-6.9-12.8v11.5c0,0.5,0.1,1.3-1.1,1.3h-3.3c-1.2,0-1.1-0.8-1.1-1.3v-15.8
	c0-0.5-0.1-1.3,1.1-1.3h5.7c0.9,0,2.1-0.2,3.4,2.5c1,2.2,3.2,6.7,4.7,9.2c1.5-2.4,3.8-7,4.8-9.2c1.3-2.7,2.5-2.5,3.5-2.5h5.7
	c1.2,0,1.1,0.8,1.1,1.3v15.8c0,0.5,0.2,1.3-1.1,1.3h-3.3c-1.2,0-1.1-0.8-1.1-1.3v-11.5c-2.3,4.1-5.7,10.5-7,12.8"/>
<path class="st0" d="M241.4,171.3c2.8,0,2.7-2.9,2.7-4.8c0-1.7,0.4-4.4-3.2-4.4h-6.1c-3.6,0-3.1,2.7-3.1,4.4c0,1.9-0.2,4.8,2.6,4.8
	H241.4z M230.4,176.1c-5.4,0-5.2-5.8-5.2-9.6c0-3.5-0.4-8.9,6.4-8.9h12.1c6.8,0,6.4,5.5,6.4,8.9c0,3.8,0.3,9.6-5.3,9.6"/>
<path class="st0" d="M259.2,176c-7,0-7.1-5.3-7.1-7.4v-9.7c0-0.6,0-1.4,1.2-1.4h3.6c1.2,0,1.1,0.8,1.1,1.4v9.7
	c0,0.7,0.1,2.5,2.7,2.5h6.1c2.5,0,2.6-1.9,2.6-2.5v-9.7c0-0.5-0.1-1.4,1.1-1.4h3.6c1.3,0,1.2,0.8,1.2,1.4v9.7c0,2.1-0.1,7.4-7.1,7.4
	"/>
<path class="st0" d="M292.2,162.5h-7.3c-1.2,0-1.2,0.4-1.2,0.8v3.3h7.5c3.6,0,3.6-0.9,3.6-1.9C294.9,162.8,294.8,162.5,292.2,162.5
	 M279.2,157.6h16.4c2.2,0,5.4,0,5.4,5.9c0,3.9-0.8,4.1-2.6,5.3c3,0.5,2.6,4.3,2.6,6.3c0,1-0.4,1-0.7,1h-4.8c-1,0-0.8-1.6-0.8-2.4
	c0-2.3-1.3-2.2-1.8-2.2h-7.1c-0.7-1.2-2-3.8-2-3.8v7.6c0,0.7-0.7,0.8-0.9,0.8h-4.8c0.3,0-0.5,0-0.5-0.6v-16.2
	C277.7,158,278.5,157.6,279.2,157.6"/>
</svg>
