<?xml version="1.0" encoding="utf-8"?>
<!-- Generator: Adobe Illustrator 27.4.1, SVG Export Plug-In . SVG Version: 6.00 Build 0)  -->
<svg version="1.1" id="Laag_1" xmlns="http://www.w3.org/2000/svg" xmlns:xlink="http://www.w3.org/1999/xlink" x="0px" y="0px"
	 viewBox="0 0 536 78" style="enable-background:new 0 0 536 78;" xml:space="preserve">
<style type="text/css">
	.st0{fill:#F5D853;stroke:#F5D853;stroke-width:3;stroke-miterlimit:10;}
</style>
<g>
	<path class="st0" d="M258.3,60.2h-0.8V41.6h-10.5c-6.6,0-9,2-9,8.3v4.3c0,3-0.5,4.7-1.4,5.9h-0.9c1-1.3,1.6-3.1,1.6-5.8v-4.7
		c0-6.5,2.9-8.4,8.2-8.5v-0.1c-6.2-0.7-9.5-3.8-9.5-9.3c0-6.6,4.9-9.6,14-9.6h8.1V60.2z M250.2,22.8c-9,0-13.4,2.9-13.4,9
		c0,6.1,4.3,9.2,13.3,9.2h7.3V22.8H250.2z"/>
	<path class="st0" d="M221.2,60.2h-19.3v-0.7h18.6V40.8h-17.3v-0.7h17.3V22.8h-18.6v-0.7h19.3V60.2z"/>
	<path class="st0" d="M178.7,60.2h-0.8l-14.4-38.1h0.8l14,37.2l14-37.2h0.8L178.7,60.2z"/>
	<path class="st0" d="M151.8,60.2h-19.3v-0.7H151V40.8h-17.3v-0.7H151V22.8h-18.6v-0.7h19.3V60.2z"/>
	<path class="st0" d="M119.1,60.2h-0.8V41.6h-10.5c-6.6,0-9,2-9,8.3v4.3c0,3-0.5,4.7-1.4,5.9h-0.9c1-1.3,1.6-3.1,1.6-5.8v-4.7
		c0-6.5,2.9-8.4,8.2-8.5v-0.1c-6.2-0.7-9.5-3.8-9.5-9.3c0-6.6,4.9-9.6,14-9.6h8.1V60.2z M111,22.8c-9,0-13.4,2.9-13.4,9
		c0,6.1,4.3,9.2,13.3,9.2h7.3V22.8H111z"/>
	<path class="st0" d="M72.4,60.6c-6.7,0-11-4.3-11-9.8c0-4.7,2.9-8.1,8.5-9.4l5-1.2c5-1.2,7.8-4,7.8-8.7c0-5-3.8-9.1-9.9-9.1
		c-5.2,0-9,2.6-10.3,7.5l-0.8-0.2c1.4-5,5.4-7.9,11.1-7.9c6.5,0,10.7,4.4,10.7,9.8c0,4.9-2.8,8.1-8.3,9.4l-5,1.2
		c-5.2,1.3-8,4.4-8,8.7c0,5.1,3.9,9.1,10.3,9.1c5.9,0,10.1-2.8,11.3-7.9l0.8,0.2C83.2,57.6,78.8,60.6,72.4,60.6z"/>
	<path class="st0" d="M32.9,60.6c-9.3,0-16.3-8.3-16.3-19.5c0-11.1,7-19.5,16.3-19.5S49.2,30,49.2,41.2
		C49.2,52.3,42.2,60.6,32.9,60.6z M32.9,59.9c8.8,0,15.5-8.1,15.5-18.8c0-10.7-6.7-18.8-15.5-18.8s-15.5,8.1-15.5,18.8
		C17.4,51.9,24.1,59.9,32.9,59.9z"/>
</g>
<g>
	<path class="st0" d="M276.3,22.1h8.1c9.2,0,14,3,14,9.6c0,5.5-3.3,8.6-9.5,9.3v0.1c5.3,0.2,8.2,2,8.2,8.5v4.7
		c0,2.7,0.6,4.5,1.6,5.8h-0.9c-0.9-1.2-1.4-2.9-1.4-5.9V50c0-6.3-2.4-8.3-9-8.3h-10.5v18.6h-0.8V22.1z M277.1,22.8v18.1h7.3
		c9,0,13.3-3.1,13.3-9.2c0-6.1-4.4-9-13.4-9H277.1z"/>
	<path class="st0" d="M311.1,22.1h19.3v0.7h-18.6v17.3h17.3v0.7h-17.3v18.8h18.6v0.7h-19.3V22.1z"/>
	<path class="st0" d="M339,41.2c0-11.1,7-19.5,16-19.5c6.8,0,11.6,3.4,13.7,9.9l-0.8,0.2c-2-6.3-6.5-9.5-12.9-9.5
		c-8.5,0-15.2,8.1-15.2,18.8c0,10.7,6.7,18.8,15.2,18.8c6.5,0,10.9-3.2,12.9-9.5l0.8,0.2c-2.1,6.5-6.9,9.9-13.7,9.9
		C346,60.6,339,52.3,339,41.2z"/>
	<path class="st0" d="M377.9,41.2c0-11.1,7-19.5,16.3-19.5s16.3,8.3,16.3,19.5c0,11.1-7,19.5-16.3,19.5S377.9,52.3,377.9,41.2z
		 M409.7,41.2c0-10.7-6.7-18.8-15.5-18.8c-8.8,0-15.5,8.1-15.5,18.8c0,10.7,6.7,18.8,15.5,18.8C403,59.9,409.7,51.9,409.7,41.2z"/>
	<path class="st0" d="M422.5,22.1h8.1c9.2,0,14,3,14,9.6c0,5.5-3.3,8.6-9.5,9.3v0.1c5.3,0.2,8.2,2,8.2,8.5v4.7
		c0,2.7,0.6,4.5,1.6,5.8h-0.9c-0.9-1.2-1.4-2.9-1.4-5.9V50c0-6.3-2.4-8.3-9-8.3h-10.5v18.6h-0.8V22.1z M423.3,22.8v18.1h7.3
		c9,0,13.3-3.1,13.3-9.2c0-6.1-4.4-9-13.4-9H423.3z"/>
	<path class="st0" d="M457.3,22.1h10.6c11.3,0,17.7,7.9,17.7,19.1c0,11.1-6.4,19.1-17.7,19.1h-10.6V22.1z M458,22.8v36.7h9.9
		c10.8,0,16.9-7.6,16.9-18.4c0-10.8-6.1-18.4-16.9-18.4H458z"/>
	<path class="st0" d="M495.1,52.3l0.8-0.2c1.2,5.1,5.3,7.9,11.3,7.9c6.5,0,10.3-4,10.3-9.1c0-4.3-2.8-7.4-8-8.7l-5-1.2
		c-5.5-1.3-8.3-4.5-8.3-9.4c0-5.4,4.2-9.8,10.7-9.8c5.7,0,9.6,2.9,11.1,7.9l-0.8,0.2c-1.3-4.9-5.1-7.5-10.3-7.5
		c-6.2,0-9.9,4.1-9.9,9.1c0,4.7,2.8,7.5,7.8,8.7l5,1.2c5.6,1.3,8.5,4.7,8.5,9.4c0,5.5-4.3,9.8-11,9.8
		C500.7,60.6,496.4,57.6,495.1,52.3z"/>
</g>
</svg>
