<?xml version="1.0" encoding="utf-8"?>
<!-- Generator: $$$/GeneralStr/196=Adobe Illustrator 27.6.0, SVG Export Plug-In . SVG Version: 6.00 Build 0)  -->
<svg version="1.1" id="Laag_1" xmlns="http://www.w3.org/2000/svg" xmlns:xlink="http://www.w3.org/1999/xlink" x="0px" y="0px"
	 viewBox="0 0 841.9 322" style="enable-background:new 0 0 841.9 322;" xml:space="preserve">
<style type="text/css">
	.st0{fill:#F5D853;stroke:#F5D853;stroke-width:3;stroke-miterlimit:10;}
</style>
<g>
	<g>
		<path class="st0" d="M403.6,179.4h-2.5v-62.3h-35c-22.1,0-30,6.8-30,27.9v14.5c0,10.1-1.7,15.9-4.8,19.9h-2.9
			c3.3-4.4,5.2-10.4,5.2-19.5v-15.7c0-21.9,9.9-28.1,27.5-28.6v-0.4c-20.7-2.3-31.7-12.8-31.7-31.1c0-22.2,16.2-32.3,47-32.3h27.3
			V179.4z M376.7,54c-30.2,0-44.9,9.7-44.9,30s14.5,30.8,44.7,30.8h24.6V54H376.7z"/>
	</g>
	<g>
		<path class="st0" d="M406.5,301.3h-1.2v-29.4h-16.5c-10.4,0-14.1,3.2-14.1,13.1v6.8c0,4.7-0.8,7.5-2.3,9.4H371
			c1.5-2.1,2.5-4.9,2.5-9.2v-7.4c0-10.3,4.7-13.2,13-13.5V271c-9.8-1.1-15-6-15-14.7c0-10.5,7.7-15.2,22.2-15.2h12.9V301.3z
			 M393.8,242.2c-14.2,0-21.2,4.6-21.2,14.1c0,9.6,6.8,14.5,21.1,14.5h11.6v-28.6H393.8z"/>
		<path class="st0" d="M347.9,301.3h-30.6v-1.1h29.4v-29.6h-27.4v-1.1h27.4v-27.3h-29.4v-1.1h30.6V301.3z"/>
		<path class="st0" d="M280.8,301.3h-1.3l-22.7-60.2h1.2l22.2,58.7l22.1-58.7h1.3L280.8,301.3z"/>
		<path class="st0" d="M238.3,301.3h-30.6v-1.1h29.4v-29.6h-27.4v-1.1h27.4v-27.3h-29.4v-1.1h30.6V301.3z"/>
		<path class="st0" d="M186.6,301.3h-1.2v-29.4h-16.5c-10.4,0-14.1,3.2-14.1,13.1v6.8c0,4.7-0.8,7.5-2.3,9.4h-1.4
			c1.5-2.1,2.5-4.9,2.5-9.2v-7.4c0-10.3,4.7-13.2,13-13.5V271c-9.8-1.1-15-6-15-14.7c0-10.5,7.7-15.2,22.2-15.2h12.9V301.3z
			 M174,242.2c-14.2,0-21.2,4.6-21.2,14.1c0,9.6,6.8,14.5,21.1,14.5h11.6v-28.6H174z"/>
		<path class="st0" d="M113,301.9c-10.6,0-17.4-6.7-17.4-15.5c0-7.4,4.6-12.8,13.4-14.9l7.9-1.9c7.9-1.9,12.3-6.4,12.3-13.8
			c0-7.8-5.9-14.3-15.7-14.3c-8.2,0-14.2,4.1-16.3,11.8l-1.2-0.4c2.3-7.8,8.5-12.5,17.5-12.5c10.2,0,16.9,6.9,16.9,15.4
			c0,7.8-4.5,12.8-13.1,14.9l-7.9,1.9c-8.2,2-12.6,6.9-12.6,13.8c0,8.1,6.1,14.4,16.3,14.4c9.4,0,16-4.4,17.8-12.5l1.2,0.4
			C130,297.2,123.1,301.9,113,301.9z"/>
		<path class="st0" d="M50.6,301.9c-14.7,0-25.7-13.1-25.7-30.7c0-17.6,11-30.7,25.7-30.7s25.7,13.1,25.7,30.7
			C76.3,288.8,65.3,301.9,50.6,301.9z M50.6,300.8c14,0,24.5-12.8,24.5-29.6c0-16.9-10.6-29.6-24.5-29.6s-24.5,12.8-24.5,29.6
			C26.1,288.1,36.7,300.8,50.6,300.8z"/>
	</g>
	<g>
		<path class="st0" d="M435,241.1h12.9c14.5,0,22.2,4.7,22.2,15.2c0,8.7-5.2,13.6-15,14.7v0.2c8.3,0.3,13,3.2,13,13.5v7.4
			c0,4.3,0.9,7.1,2.5,9.2h-1.4c-1.5-1.9-2.3-4.7-2.3-9.4V285c0-9.9-3.7-13.1-14.1-13.1h-16.5v29.4H435V241.1z M436.2,242.2v28.6
			h11.6c14.2,0,21.1-4.9,21.1-14.5c0-9.6-6.9-14.1-21.2-14.1H436.2z"/>
		<path class="st0" d="M490,241.1h30.6v1.1h-29.4v27.3h27.4v1.1h-27.4v29.6h29.4v1.1H490V241.1z"/>
		<path class="st0" d="M534,271.2c0-17.6,11-30.7,25.3-30.7c10.7,0,18.2,5.4,21.6,15.7l-1.2,0.4c-3.2-9.9-10.2-15-20.4-15
			c-13.5,0-24.1,12.8-24.1,29.6c0,16.9,10.6,29.6,24.1,29.6c10.2,0,17.2-5,20.4-15l1.2,0.4c-3.4,10.3-10.9,15.7-21.6,15.7
			C545,301.9,534,288.8,534,271.2z"/>
		<path class="st0" d="M595.4,271.2c0-17.6,11-30.7,25.7-30.7c14.7,0,25.7,13.1,25.7,30.7c0,17.6-11,30.7-25.7,30.7
			C606.5,301.9,595.4,288.8,595.4,271.2z M645.7,271.2c0-16.9-10.6-29.6-24.5-29.6c-14,0-24.5,12.8-24.5,29.6
			c0,16.9,10.6,29.6,24.5,29.6C635.1,300.8,645.7,288.1,645.7,271.2z"/>
		<path class="st0" d="M665.9,241.1h12.9c14.5,0,22.2,4.7,22.2,15.2c0,8.7-5.2,13.6-15,14.7v0.2c8.3,0.3,13,3.2,13,13.5v7.4
			c0,4.3,0.9,7.1,2.5,9.2H700c-1.5-1.9-2.3-4.7-2.3-9.4V285c0-9.9-3.7-13.1-14.1-13.1h-16.5v29.4h-1.2V241.1z M667.1,242.2v28.6
			h11.6c14.2,0,21.1-4.9,21.1-14.5c0-9.6-6.9-14.1-21.2-14.1H667.1z"/>
		<path class="st0" d="M720.8,241.1h16.8c17.8,0,27.9,12.5,27.9,30.1c0,17.6-10.1,30.1-27.9,30.1h-16.8V241.1z M722,242.2v58h15.6
			c17.1,0,26.7-11.9,26.7-29c0-17.1-9.7-29-26.7-29H722z"/>
		<path class="st0" d="M780.5,288.7l1.2-0.4c1.8,8.1,8.4,12.5,17.8,12.5c10.2,0,16.3-6.3,16.3-14.4c0-6.8-4.4-11.8-12.6-13.8
			l-7.9-1.9c-8.7-2.1-13.1-7.1-13.1-14.9c0-8.5,6.7-15.4,16.9-15.4c9,0,15.2,4.7,17.5,12.5l-1.2,0.4c-2.1-7.7-8.1-11.8-16.3-11.8
			c-9.8,0-15.7,6.5-15.7,14.3c0,7.4,4.4,11.9,12.3,13.8l7.9,1.9c8.8,2.1,13.4,7.5,13.4,14.9c0,8.8-6.8,15.5-17.4,15.5
			C789.5,301.9,782.5,297.2,780.5,288.7z"/>
	</g>
	<g>
		<g>
			<path class="st0" d="M435,52.5c1.4-6.6,7.6,1.1,14.4,1.1s6.8-1.8,13.5-1.8c13.2,0,23.3,3.5,31,7.4c10.1,5.1,16.5,13,16.5,25.5
				c0,9.6-4.5,16.3-10.3,21.5c-5.3,4.7-12.2,9.2-21.9,10.3c-0.1,0-1-0.8-1-0.7s0.8-0.7,0.9-0.7c9.3,0.3,15.7,3.7,20.3,8.6
				c4.1,4.4,7.8,10.5,7.8,20.7c0,3.9-1.8,3.9-1.8,7.8s1.8,3.9,1.8,7.8c0,3.9-1.4,7.5-0.7,10.3c0.9,3.8,4,6.4,5.9,8.9
				c0.1,0.7-1.6-0.7-2.3-0.7s-1.4,2-2,1.6c-1.8-2.4-1.8-6.2-2.6-10.3c-0.6-2.8-2.6-6.1-2.6-10.1c0-3.6,1.8-3.6,1.8-7.2
				s-1.8-3.6-1.8-7.2c0-10.7-0.6-18.4-5.6-22.7c-4.7-4-12.6-4.1-23.3-4.1c-8.7,0-8.7-1.8-17.4-1.8s-12.3-6.3-16.6,1.3
				c-7.6,13.5-1.6,15-1.6,30.5s2.4,15.5,1.8,30.9c0,0.6-1.5-0.9-2.1-0.9s-2.1,1.5-2.1,0.9c-0.6-31.7,4.2-31.9,1.8-63.4
				C434.3,84.1,428.4,83.5,435,52.5z M439.2,55.3c-5.6,14-1.7,14.7-1.7,29.8s-4,15.8,1.7,29.8c2.3,5.6,5.3,1.2,11.4,1.2
				s6.1-1.8,12.2-1.8c12.7,0,23-0.2,30.2-3.9c9.8-5,13.2-14.1,13.2-25.7c0-11.7-3.6-20.6-13.5-25.3c-7.2-3.5-17.5-3.5-30.1-3.5
				c-6,0-6-0.3-11.9-1.7C444.5,52.6,441.4,49.7,439.2,55.3z"/>
		</g>
	</g>
</g>
</svg>
